<?xml version="1.0" encoding="UTF-8" standalone="no"?>
<!-- Uploaded to: SVG Repo, www.svgrepo.com, Generator: SVG Repo Mixer Tools -->

<svg
   width="800px"
   height="800px"
   viewBox="0 0 24 24"
   fill="none"
   version="1.1"
   id="svg3"
   sodipodi:docname="secure-note.svg"
   inkscape:version="1.3.2 (091e20e, 2023-11-25, custom)"
   xmlns:inkscape="http://www.inkscape.org/namespaces/inkscape"
   xmlns:sodipodi="http://sodipodi.sourceforge.net/DTD/sodipodi-0.dtd"
   xmlns="http://www.w3.org/2000/svg"
   xmlns:svg="http://www.w3.org/2000/svg">
  <defs
     id="defs3" />
  <sodipodi:namedview
     id="namedview3"
     pagecolor="#ffffff"
     bordercolor="#000000"
     borderopacity="0.25"
     inkscape:showpageshadow="2"
     inkscape:pageopacity="0.0"
     inkscape:pagecheckerboard="0"
     inkscape:deskcolor="#d1d1d1"
     inkscape:zoom="1.160625"
     inkscape:cx="325.25579"
     inkscape:cy="523.85568"
     inkscape:window-width="2067"
     inkscape:window-height="1556"
     inkscape:window-x="155"
     inkscape:window-y="461"
     inkscape:window-maximized="0"
     inkscape:current-layer="svg3" />
  <path
     d="M16 3.98999H8C6.93913 3.98999 5.92178 4.41135 5.17163 5.1615C4.42149 5.91164 4 6.92912 4 7.98999V17.99C4 19.0509 4.42149 20.0682 5.17163 20.8184C5.92178 21.5685 6.93913 21.99 8 21.99H16C17.0609 21.99 18.0783 21.5685 18.8284 20.8184C19.5786 20.0682 20 19.0509 20 17.99V7.98999C20 6.92912 19.5786 5.91164 18.8284 5.1615C18.0783 4.41135 17.0609 3.98999 16 3.98999Z"
     stroke="#000000"
     stroke-width="1.5"
     stroke-linecap="round"
     stroke-linejoin="round"
     id="path1" />
  <path
     d="M9 2V7"
     stroke="#000000"
     stroke-width="1.5"
     stroke-linecap="round"
     stroke-linejoin="round"
     id="path2" />
  <path
     d="M15 2V7"
     stroke="#000000"
     stroke-width="1.5"
     stroke-linecap="round"
     stroke-linejoin="round"
     id="path3" />
  <path
     fill="none"
     stroke="#000000"
     stroke-width="1.06408"
     d="m 9.3921325,13.826474 v -2.660205 c 0,-1.5961239 1.0640815,-2.6602053 2.6602045,-2.6602053 1.596122,0 2.660205,1.0640814 2.660205,2.6602053 v 2.660205 m -2.660205,6.384491 c 2.056867,0 3.724286,-1.66742 3.724286,-3.724287 0,-2.056866 -1.667419,-3.724285 -3.724286,-3.724285 -2.0568671,0 -3.7242865,1.667419 -3.7242865,3.724285 0,2.056867 1.6674194,3.724287 3.7242865,3.724287 z m 0,-4.256328 v 2.128165 m 0,-1.596124 c 0.293838,0 0.532041,-0.238202 0.532041,-0.532041 0,-0.293837 -0.238203,-0.53204 -0.532041,-0.53204 -0.293839,0 -0.532042,0.238203 -0.532042,0.53204 0,0.293839 0.238203,0.532041 0.532042,0.532041 z"
     id="path1-7" />
</svg>
